<svg width="300" height="75.351" viewBox="0 0 525.7 140.351" xmlns="http://www.w3.org/2000/svg">
    <g transform="translate(40, 0)" id="svgGroup" stroke-linecap="round" fill-rule="evenodd" font-size="9pt" stroke="#fff" stroke-width="2mm"
       fill="#ffffffff" style="stroke:#fff;stroke-width:2mm;fill:#ffffff00">
        <path fill="#fff" d="M 0 66.9 L 4.2 62.1 Q 7.7 65.45 12.35 67.475 Q 16.673 69.358 22.595 69.49 A 40.496 40.496 0 0 0 23.5 69.5 Q 27.9 69.5 31.85 68 A 15.289 15.289 0 0 0 36.779 65.017 A 14.495 14.495 0 0 0 38.3 63.4 A 11.044 11.044 0 0 0 40.518 58.533 A 15.56 15.56 0 0 0 40.8 55.5 A 16.087 16.087 0 0 0 40.577 52.752 Q 40.292 51.109 39.643 49.756 A 9.785 9.785 0 0 0 39.45 49.375 A 9.118 9.118 0 0 0 37.795 47.2 Q 36.95 46.363 35.821 45.602 A 18.716 18.716 0 0 0 34.65 44.875 Q 31.358 42.99 25.515 41.265 A 87.234 87.234 0 0 0 24.95 41.1 A 86.709 86.709 0 0 1 18.9 39.119 A 65.629 65.629 0 0 1 13.55 36.875 A 25.212 25.212 0 0 1 9.339 34.377 A 18.935 18.935 0 0 1 5.7 30.875 A 13.034 13.034 0 0 1 3.187 25.288 A 18.245 18.245 0 0 1 2.85 21.7 Q 2.85 16.9 5.475 13.05 A 17.158 17.158 0 0 1 10.608 8.175 A 21.569 21.569 0 0 1 12.85 6.95 A 22.688 22.688 0 0 1 18.716 5.131 A 30.93 30.93 0 0 1 24 4.7 Q 30.368 4.7 35.158 6.385 A 23.919 23.919 0 0 1 35.875 6.65 Q 40.9 8.6 45.15 12.25 L 40.85 16.95 A 24.882 24.882 0 0 0 35.938 13.442 A 21.581 21.581 0 0 0 32.775 12.05 Q 28.45 10.55 24 10.55 A 22.319 22.319 0 0 0 19.13 11.065 A 19.304 19.304 0 0 0 16.7 11.775 A 13.571 13.571 0 0 0 13.425 13.481 A 11.511 11.511 0 0 0 11.3 15.45 A 8.629 8.629 0 0 0 9.45 19.457 A 12.03 12.03 0 0 0 9.25 21.7 Q 9.25 24.9 10.95 27.225 A 9.832 9.832 0 0 0 12.552 28.913 Q 13.406 29.635 14.516 30.313 A 24.069 24.069 0 0 0 16.675 31.475 Q 20.7 33.4 27.55 35.4 Q 32.55 36.8 37.1 38.975 Q 41.65 41.15 44.525 45.075 A 13.783 13.783 0 0 1 46.636 49.517 Q 47.161 51.376 47.325 53.578 A 27.872 27.872 0 0 1 47.4 55.65 Q 47.4 61.4 44.575 65.85 A 18.008 18.008 0 0 1 38.889 71.442 A 22.903 22.903 0 0 1 36.35 72.825 Q 31.516 75.086 24.758 75.322 A 45.919 45.919 0 0 1 23.15 75.35 Q 16.3 75.35 10.325 73.2 Q 4.35 71.05 0 66.9 Z M 65.65 0.75 L 71.85 0 L 71.85 29.6 Q 74.9 25.3 79.6 23.1 A 23.407 23.407 0 0 1 85.402 21.222 A 20.364 20.364 0 0 1 89 20.9 A 24.068 24.068 0 0 1 93.096 21.224 Q 95.303 21.606 97.027 22.438 A 10.189 10.189 0 0 1 100.4 25 Q 103.9 29.1 103.9 36.35 L 103.9 74.35 L 97.7 74.35 L 97.7 35.25 A 13.773 13.773 0 0 0 97.475 32.675 Q 97.194 31.197 96.559 30.058 A 6.624 6.624 0 0 0 95.15 28.3 A 7.908 7.908 0 0 0 92.527 26.802 Q 91.336 26.38 89.866 26.195 A 19.772 19.772 0 0 0 87.4 26.05 Q 84 26.05 80.95 27.55 A 22.703 22.703 0 0 0 75.997 30.823 A 21.181 21.181 0 0 0 75.55 31.225 A 27.926 27.926 0 0 0 73.685 33.114 Q 72.609 34.319 71.85 35.5 L 71.85 74.35 L 65.65 74.35 L 65.65 0.75 Z M 226.8 21.85 A 62.71 62.71 0 0 0 225.475 21.534 A 52.749 52.749 0 0 0 223.375 21.1 A 14.734 14.734 0 0 0 223.323 21.09 Q 222.507 20.943 221.586 20.87 A 24.048 24.048 0 0 0 219.7 20.8 Q 216.456 20.8 213.801 21.506 A 14.759 14.759 0 0 0 208.025 24.425 A 22.177 22.177 0 0 0 207.49 24.888 Q 205.332 26.817 203.49 29.462 A 36.739 36.739 0 0 0 200.6 34.45 L 199.45 21.85 L 186.15 21.85 L 186.15 27.1 L 194.7 27.1 L 194.7 69.15 L 186.15 69.15 L 186.15 74.35 L 211.7 74.35 L 211.7 69.15 L 200.9 69.15 L 200.9 44.75 Q 203.7 35.4 208.15 31.075 Q 212.6 26.75 218.95 26.75 Q 219.853 26.75 220.65 26.814 A 15.073 15.073 0 0 1 221.975 26.975 Q 222.803 27.116 223.797 27.364 A 38.472 38.472 0 0 1 225.05 27.7 L 226.8 21.85 L 220.5 21.85 L 220.1 28.1 L 220.1 38.35 L 226.1 38.35 L 226.8 21.85 Z M 365.65 21.85 L 371.85 21.85 L 371.85 59.4 Q 371.85 62.72 372.685 64.977 A 7.738 7.738 0 0 0 374.225 67.575 Q 376.118 69.627 379.774 70.044 A 17.479 17.479 0 0 0 381.75 70.15 Q 386.65 70.15 390.95 67.375 A 25.062 25.062 0 0 0 394.542 64.592 A 18.918 18.918 0 0 0 397.55 61 L 397.55 21.85 L 403.75 21.85 L 403.75 74.35 L 398.55 74.35 L 397.85 67 Q 394.65 71 390.05 73.175 A 22.781 22.781 0 0 1 384.444 75.018 A 19.748 19.748 0 0 1 380.85 75.35 A 23.122 23.122 0 0 1 376.521 74.971 Q 372.077 74.123 369.45 71.375 A 12.979 12.979 0 0 1 366.377 65.867 Q 365.798 63.839 365.68 61.413 A 26.055 26.055 0 0 1 365.65 60.15 L 365.65 21.85 Z M 283 67.4 L 285.7 71.85 A 17.45 17.45 0 0 1 282.627 73.43 A 23.832 23.832 0 0 1 279.4 74.45 Q 275.7 75.35 272.55 75.35 A 23.941 23.941 0 0 1 267.523 74.854 Q 264.301 74.162 261.865 72.504 A 13.856 13.856 0 0 1 260.175 71.15 A 13.774 13.774 0 0 1 255.71 61.191 A 17.604 17.604 0 0 1 255.7 60.6 L 255.7 27.05 L 243.3 27.05 L 243.3 21.85 L 255.7 21.85 L 255.7 9.75 L 261.9 9 L 261.9 21.85 L 280.4 21.85 L 279.55 27.05 L 261.9 27.05 L 261.9 60.45 Q 261.9 65 264.375 67.475 Q 266.754 69.854 272.252 69.946 A 26.741 26.741 0 0 0 272.7 69.95 A 22.558 22.558 0 0 0 276.189 69.69 A 18.704 18.704 0 0 0 278.25 69.25 Q 280.8 68.55 283 67.4 Z M 463 67.4 L 465.7 71.85 A 17.45 17.45 0 0 1 462.627 73.43 A 23.832 23.832 0 0 1 459.4 74.45 Q 455.7 75.35 452.55 75.35 A 23.941 23.941 0 0 1 447.523 74.854 Q 444.301 74.162 441.865 72.504 A 13.856 13.856 0 0 1 440.175 71.15 A 13.774 13.774 0 0 1 435.71 61.191 A 17.604 17.604 0 0 1 435.7 60.6 L 435.7 27.05 L 423.3 27.05 L 423.3 21.85 L 435.7 21.85 L 435.7 9.75 L 441.9 9 L 441.9 21.85 L 460.4 21.85 L 459.55 27.05 L 441.9 27.05 L 441.9 60.45 Q 441.9 65 444.375 67.475 Q 446.754 69.854 452.252 69.946 A 26.741 26.741 0 0 0 452.7 69.95 A 22.558 22.558 0 0 0 456.189 69.69 A 18.704 18.704 0 0 0 458.25 69.25 Q 460.8 68.55 463 67.4 Z M 342.4 65 L 345.65 69.2 A 24.003 24.003 0 0 1 339.993 72.71 A 29.202 29.202 0 0 1 337.4 73.725 Q 332.6 75.35 328.4 75.35 A 29.326 29.326 0 0 1 322.359 74.758 A 21.216 21.216 0 0 1 315.425 72.025 A 20.914 20.914 0 0 1 307.682 63.352 A 25.367 25.367 0 0 1 307.325 62.6 A 30.021 30.021 0 0 1 305.081 55.073 A 41.183 41.183 0 0 1 304.55 48.3 A 37.704 37.704 0 0 1 305.333 40.464 A 30.565 30.565 0 0 1 307.325 34.3 Q 310.1 28.1 315.425 24.5 Q 320.75 20.9 328.45 20.9 Q 333.2 20.9 337.525 22.4 Q 341.85 23.9 345.5 26.85 L 342.2 31.3 A 33.473 33.473 0 0 0 338.34 28.987 A 26.402 26.402 0 0 0 335.175 27.625 Q 331.7 26.4 328.15 26.4 Q 320.9 26.4 316.175 31.9 A 17.403 17.403 0 0 0 312.95 37.731 Q 312.083 40.29 311.717 43.423 A 42.106 42.106 0 0 0 311.45 48.3 A 41.374 41.374 0 0 0 311.728 53.244 Q 312.029 55.745 312.659 57.846 A 19.858 19.858 0 0 0 313.6 60.375 A 18.016 18.016 0 0 0 315.792 64.04 A 13.719 13.719 0 0 0 319.525 67.375 Q 323.3 69.65 328.15 69.65 A 23.819 23.819 0 0 0 333.393 69.09 A 20.706 20.706 0 0 0 335.925 68.35 A 27.777 27.777 0 0 0 341.454 65.637 A 25.397 25.397 0 0 0 342.4 65 Z M 150.292 21.45 A 25.527 25.527 0 0 0 144.85 20.9 Q 137.65 20.9 132.775 24.375 A 19.693 19.693 0 0 0 128.796 28.147 A 22.895 22.895 0 0 0 125.45 34 A 33.304 33.304 0 0 0 123.538 41.071 A 45.02 45.02 0 0 0 123 48.2 A 45.731 45.731 0 0 0 123.481 54.988 A 33.535 33.535 0 0 0 125.425 62.375 A 25.145 25.145 0 0 0 126.441 64.621 A 19.994 19.994 0 0 0 132.675 71.925 A 17.97 17.97 0 0 0 139.242 74.785 A 25.035 25.035 0 0 0 144.7 75.35 A 24.573 24.573 0 0 0 149.142 74.965 A 17.885 17.885 0 0 0 156.675 71.775 A 20.455 20.455 0 0 0 160.501 68.08 A 23.596 23.596 0 0 0 163.95 62.05 Q 166.4 55.9 166.4 48.1 Q 166.4 43.95 165.806 40.35 A 33.17 33.17 0 0 0 164.025 33.7 A 24.413 24.413 0 0 0 162.96 31.335 A 19.258 19.258 0 0 0 156.85 24.25 A 18.036 18.036 0 0 0 150.292 21.45 Z M 144.85 26.35 A 16.285 16.285 0 0 0 140.185 26.982 A 12.133 12.133 0 0 0 133.625 31.7 A 16.995 16.995 0 0 0 131.37 36.294 Q 129.8 41.057 129.8 48.2 A 50.935 50.935 0 0 0 130.097 53.894 Q 130.855 60.612 133.55 64.475 A 12.186 12.186 0 0 0 142.477 69.719 A 18.216 18.216 0 0 0 144.7 69.85 Q 152.1 69.85 155.85 64.475 Q 159.445 59.322 159.594 48.999 A 62.516 62.516 0 0 0 159.6 48.1 A 52.472 52.472 0 0 0 159.305 42.335 Q 158.627 36.22 156.388 32.493 A 14.061 14.061 0 0 0 155.875 31.7 A 12.074 12.074 0 0 0 147.044 26.481 A 17.827 17.827 0 0 0 144.85 26.35 Z"
              vector-effect="non-scaling-stroke"/>
    </g>
    <g transform="translate(5.55555555555556 59.611111111111114) scale(1)" id="svgGroup" stroke-linecap="round" fill-rule="evenodd" font-size="9pt" fill="#fc73a1"><path d="M 0.508 5.706 A 8.972 8.972 0 0 0 0 8.75 A 10.403 10.403 0 0 0 0 8.76 A 8.901 8.901 0 0 0 1.15 13.225 Q 2.3 15.25 4.275 16.425 A 8.122 8.122 0 0 0 5.933 17.175 A 9.099 9.099 0 0 0 8.75 17.6 A 10.518 10.518 0 0 0 9.572 17.569 A 8.58 8.58 0 0 0 13.3 16.425 Q 15.3 15.25 16.45 13.225 A 8.81 8.81 0 0 0 16.789 12.566 A 8.995 8.995 0 0 0 17.6 8.75 A 10.21 10.21 0 0 0 17.593 8.37 A 8.541 8.541 0 0 0 16.45 4.325 Q 15.3 2.35 13.3 1.175 A 8.259 8.259 0 0 0 11.515 0.393 A 9.449 9.449 0 0 0 8.75 0 Q 6.25 0 4.275 1.175 Q 2.3 2.35 1.15 4.325 A 8.284 8.284 0 0 0 0.508 5.706 Z" vector-effect="non-scaling-stroke"/></g>
    <g fill="#FFFFFF">
        <g transform="translate(320.555555555555556 120.611111111111114) scale(0.5)" fill="#FFFFFF">
            <g id="line1" fill="#ccc">
                <g transform="translate(-55.555555555555556 -31.611111111111114) scale(0.4)" id="svgGroup" stroke-linecap="round" fill-rule="evenodd" font-size="9pt" stroke-width=".2" fill="#ccc">
                    <path d="M 95.1 22.25 L 103.8 22.25 L 85.3 75.25 A 47.585 47.585 0 0 1 81.65 83.35 A 43.144 43.144 0 0 1 80.625 85.05 Q 77.8 89.5 73.275 92.425 Q 69.174 95.076 63.082 95.899 A 38.011 38.011 0 0 1 61.8 96.05 L 60.5 89.35 A 38.029 38.029 0 0 0 63.966 88.621 Q 65.594 88.193 66.941 87.65 A 16.33 16.33 0 0 0 69.1 86.6 A 14.71 14.71 0 0 0 73.012 83.317 A 13.78 13.78 0 0 0 74.075 81.85 Q 75.843 79.041 77.212 75.152 A 46.764 46.764 0 0 0 77.3 74.9 L 74.5 74.9 L 56.1 22.25 L 65.1 22.25 L 80.2 68.5 L 95.1 22.25 Z M 8.4 0 L 8.4 29.1 A 22.774 22.774 0 0 1 12.259 25.109 A 19.624 19.624 0 0 1 15.075 23.225 Q 18.85 21.15 23.4 21.15 Q 30.45 21.15 34.8 24.55 A 17.818 17.818 0 0 1 39.649 30.495 A 23.87 23.87 0 0 1 41.15 34.125 A 39.062 39.062 0 0 1 42.634 40.706 Q 43.086 43.904 43.142 47.511 A 66.449 66.449 0 0 1 43.15 48.55 Q 43.15 56.5 40.75 62.725 Q 38.35 68.95 33.725 72.5 Q 29.1 76.05 22.3 76.05 A 20.326 20.326 0 0 1 15.814 75.063 A 16.544 16.544 0 0 1 7.95 69.45 L 7.35 74.9 L 0 74.9 L 0 1.05 L 8.4 0 Z M 8.4 36.35 L 8.4 62.45 Q 10.45 65.55 13.575 67.4 Q 16.7 69.25 20.3 69.25 A 13.591 13.591 0 0 0 24.821 68.533 A 11.329 11.329 0 0 0 30.45 64.15 A 16.401 16.401 0 0 0 32.539 59.794 Q 33.879 55.645 33.99 49.608 A 60.159 60.159 0 0 0 34 48.5 A 56.256 56.256 0 0 0 33.811 43.746 Q 33.618 41.474 33.227 39.531 A 26.258 26.258 0 0 0 32.6 37.025 Q 31.487 33.389 29.506 31.206 A 10.147 10.147 0 0 0 28.425 30.175 A 9.97 9.97 0 0 0 23.193 27.994 A 13.158 13.158 0 0 0 21.6 27.9 Q 17.2 27.9 13.875 30.525 Q 10.55 33.15 8.4 36.35 Z" vector-effect="non-scaling-stroke"/>
                </g>
                <path d="M2.880-3.960C6.624-0.936 11.160 0.720 16.560 0.720C23.184 0.720 29.160-3.240 29.160-9.648C29.160-16.632 22.176-19.008 16.848-20.376C13.464-21.240 10.800-22.032 10.800-24.336C10.800-27.000 13.608-28.584 16.920-28.584C19.656-28.584 22.104-27.504 24.192-25.920L27.720-30.816C25.056-32.976 21.456-34.560 16.488-34.560C10.440-34.560 3.960-31.248 3.960-23.976C3.960-19.224 7.632-16.632 11.736-15.264C16.704-13.608 22.320-13.392 22.320-9.504C22.320-6.840 19.368-5.256 16.416-5.256C13.032-5.256 9.576-6.552 6.408-9.000Z"></path>
                <path d="M33.595-16.920C33.595-6.840 41.083 0.720 51.091 0.720C61.099 0.720 68.587-6.840 68.587-16.920C68.587-27.000 61.099-34.560 51.091-34.560C41.083-34.560 33.595-27.000 33.595-16.920ZM40.435-16.920C40.435-23.112 44.827-28.080 51.091-28.080C57.355-28.080 61.747-23.112 61.747-16.920C61.747-10.728 57.355-5.760 51.091-5.760C44.827-5.760 40.435-10.728 40.435-16.920Z"></path>
                <path d="M89.942 0.720C95.990 0.720 99.878-2.880 99.878-7.200L99.878 0L106.502 0L106.502-33.840L99.662-33.840L99.662-10.584C97.718-8.280 94.334-5.760 90.158-5.760C87.566-5.760 85.118-6.912 83.606-8.712C82.382-10.152 81.662-12.024 81.662-15.480L81.662-33.840L74.822-33.840L74.822-16.560C74.822-10.872 75.830-7.560 77.918-4.968C80.726-1.440 85.118 0.720 89.942 0.720Z"></path>
                <path d="M133.114-34.560C126.778-34.560 122.962-30.960 122.962-26.640L122.962-33.840L116.338-33.840L116.338 0L123.178 0L123.178-22.392C125.050-25.632 128.794-28.080 132.322-28.080C133.402-28.080 134.194-28.008 134.986-27.792L135.778-34.344C134.986-34.488 133.834-34.560 133.114-34.560Z"></path>
                <path d="M166.637-11.016C164.477-8.136 161.309-5.760 156.845-5.760C150.365-5.760 145.613-10.296 145.613-16.920C145.613-23.328 150.293-28.080 156.413-28.080C160.733-28.080 163.901-25.560 165.773-22.968L170.813-27.216C167.645-31.608 162.317-34.560 156.413-34.560C146.261-34.560 138.773-26.928 138.773-16.920C138.773-6.912 146.405 0.720 156.845 0.720C163.037 0.720 169.085-2.520 171.893-7.200Z"></path>
                <path d="M207.216-15.480C207.288-16.128 207.288-16.632 207.288-16.920C207.288-26.928 200.448-34.560 191.016-34.560C181.440-34.560 174.528-27.072 174.528-16.920C174.528-6.768 182.160 0.720 192.024 0.720C198.936 0.720 203.760-2.376 206.280-5.616L201.816-9.864C199.872-7.704 197.136-5.256 192.096-5.256C186.192-5.256 181.512-9.792 181.152-15.480ZM191.232-28.584C195.264-28.584 199.152-25.560 200.160-21.240L181.728-21.240C182.880-25.632 186.840-28.584 191.232-28.584Z"></path>
                <path d="M221.083-23.256C223.171-25.992 226.627-28.080 230.731-28.080C237.283-28.080 241.603-22.824 241.603-16.920C241.603-10.872 236.923-5.760 230.371-5.760C226.915-5.760 223.387-7.488 221.083-10.584ZM214.243-51.120L214.243 0L220.867 0L220.867-7.560C220.867-2.880 224.467 0.720 231.307 0.720C234.331 0.720 237.499-0.144 239.803-1.512C244.915-4.536 248.443-10.152 248.443-16.920C248.443-23.688 244.843-29.376 239.731-32.400C237.427-33.768 234.619-34.560 231.451-34.560C224.683-34.560 221.083-31.104 221.083-26.784L221.083-51.120Z"></path>
                <path d="M252.518-16.920C252.518-6.840 260.006 0.720 270.014 0.720C280.022 0.720 287.510-6.840 287.510-16.920C287.510-27.000 280.022-34.560 270.014-34.560C260.006-34.560 252.518-27.000 252.518-16.920ZM259.358-16.920C259.358-23.112 263.750-28.080 270.014-28.080C276.278-28.080 280.670-23.112 280.670-16.920C280.670-10.728 276.278-5.760 270.014-5.760C263.750-5.760 259.358-10.728 259.358-16.920Z"></path>
                <path d="M315.850 0L323.986 0L311.170-17.784L322.762-33.840L314.698-33.840L306.706-22.896L298.714-33.840L290.650-33.840L302.242-17.784L289.426 0L297.562 0L306.706-12.672Z"></path>
            </g>
        </g>
<!--        <g transform="translate(-255.11539603911552 -137.5637851889059) scale(2.751280059327834)" id="logomark">-->
<!--            <g fill="#FFFFFF">-->
<!--                <path d="M78.549 28.899L54 14.725a8 8 0 0 0-8 0L21.451 28.899a8 8 0 0 0-4 6.928v28.348a8.003 8.003 0 0 0 4 6.929L46 85.275a8.001 8.001 0 0 0 8 0l24.549-14.172c2.475-1.43 4-4.07 4-6.929V35.827a8.002 8.002 0 0 0-4-6.928zM50 21.653l20.549 11.865-20.547 11.863-20.551-11.863L50 21.653zM25.451 64.175V40.446L46 52.31v23.728L25.451 64.175zM54 76.037V52.311l20.549-11.863v23.728L54 76.037z"></path>-->
<!--            </g>-->
<!--        </g>-->
    </g>
</svg>
